<?xml version="1.0" encoding="UTF-8"?>
<svg version="1.1" xmlns="http://www.w3.org/2000/svg" width="1024" height="1024">
<path d="M0 0 C337.92 0 675.84 0 1024 0 C1024 337.92 1024 675.84 1024 1024 C686.08 1024 348.16 1024 0 1024 C0 686.08 0 348.16 0 0 Z " fill="#F1F1F1" transform="translate(0,0)"/>
<path d="M0 0 C2.58313776 -0.00928446 5.16627285 -0.01933742 7.74940491 -0.03009033 C14.68836773 -0.05688735 21.62730694 -0.06923945 28.56631279 -0.07811165 C32.90784553 -0.08368404 37.2493697 -0.09216512 41.59089661 -0.10112 C53.64612004 -0.12542658 65.70133679 -0.14606001 77.75658417 -0.15287018 C78.52299722 -0.15330931 79.28941026 -0.15374844 80.07904795 -0.15420088 C81.23107315 -0.15485571 81.23107315 -0.15485571 82.40637159 -0.15552378 C83.96215789 -0.15641066 85.51794418 -0.15730378 87.07373047 -0.15820312 C87.84541945 -0.15864598 88.61710842 -0.15908884 89.41218191 -0.15954512 C101.96732467 -0.16747279 114.52223762 -0.20251172 127.07729131 -0.24892217 C140.01105432 -0.29634348 152.94470156 -0.32127256 165.87855291 -0.32360601 C173.12375885 -0.32543662 180.36866238 -0.33687329 187.61378479 -0.37324524 C194.41032839 -0.4072523 201.20619859 -0.41055863 208.00283623 -0.39296722 C210.49616981 -0.39142321 212.98953398 -0.40015503 215.48278999 -0.41988373 C218.8845213 -0.44522703 222.28419712 -0.43362671 225.68591309 -0.41271973 C227.16677422 -0.43688894 227.16677422 -0.43688894 228.67755175 -0.46154642 C234.45568341 -0.37839857 237.96301145 0.51319736 242.11585903 4.67268598 C243.93041845 7.08356698 244.23271428 8.83075295 244.23284912 11.83155823 C244.2581218 13.43598785 244.2581218 13.43598785 244.28390503 15.0728302 C244.26659332 16.23094711 244.24928162 17.38906403 244.23144531 18.58227539 C244.24049896 19.81382355 244.24955261 21.0453717 244.25888062 22.3142395 C244.27593146 25.68091631 244.26170894 29.0445695 244.23183727 32.41096616 C244.20660387 35.93869301 244.21724616 39.4663376 244.22271729 42.99412537 C244.22629821 48.91650915 244.20179525 54.83826994 244.16015625 60.76049805 C244.11235885 67.60225183 244.10712885 74.44302153 244.12510657 81.28489643 C244.14159328 87.87485905 244.12973304 94.46447038 244.10437775 101.05439568 C244.0939895 103.85538226 244.09316945 106.65612888 244.10002899 109.45712471 C244.10793492 113.36900831 244.07422014 117.27993145 244.03613281 121.19165039 C244.04311188 122.35179153 244.05009094 123.51193268 244.05728149 124.70722961 C243.93194032 132.57764508 243.93194032 132.57764508 240.94000244 136.45542908 C240.08775085 137.07148514 239.23549927 137.6875412 238.35742188 138.32226562 C237.69742188 138.98226562 237.03742187 139.64226562 236.35742188 140.32226562 C234.51735753 140.57362264 234.51735753 140.57362264 232.23440838 140.57559872 C231.36556127 140.58121411 230.49671417 140.58682951 229.60153836 140.59261507 C228.1609852 140.58664343 228.1609852 140.58664343 226.69132996 140.58055115 C225.16740921 140.5860647 225.16740921 140.5860647 223.61270219 140.59168965 C220.18535488 140.60172291 216.75816813 140.59750807 213.33081055 140.59350586 C210.8818596 140.59789031 208.43291015 140.60319143 205.98396301 140.60934448 C200.69545073 140.62087511 195.40698087 140.62649861 190.1184597 140.62722588 C182.44922575 140.62855198 174.78006478 140.64367096 167.11085657 140.66272105 C154.6386107 140.69360114 142.16636296 140.71774144 129.6940918 140.7355957 C128.5735987 140.73720472 128.5735987 140.73720472 127.43046937 140.73884625 C119.12045693 140.75063393 110.81044375 140.76084062 102.50042725 140.76928711 C99.49955239 140.77236023 96.49867755 140.77544919 93.49780273 140.77856445 C92.38731678 140.77971246 92.38731678 140.77971246 91.25439676 140.78088366 C78.85231568 140.79402528 66.45028671 140.81875593 54.0482443 140.85230786 C46.413771 140.87247179 38.77940972 140.88290479 31.1449096 140.88031865 C25.26631665 140.87914854 19.38782224 140.89346683 13.50926018 140.9131279 C11.11698791 140.91867546 8.72469749 140.91926133 6.33242416 140.91419029 C-12.60817532 140.87828918 -32.29362161 141.56247616 -50.39257812 147.82226562 C-51.13378906 148.07621094 -51.875 148.33015625 -52.63867188 148.59179688 C-54.26224845 149.18362693 -55.86308433 149.83759047 -57.45507812 150.50976562 C-59.64257812 151.32226562 -59.64257812 151.32226562 -63.64257812 151.32226562 C-63.64257812 151.98226562 -63.64257812 152.64226562 -63.64257812 153.32226562 C-64.77695312 153.73476563 -65.91132813 154.14726562 -67.08007812 154.57226562 C-79.8253416 159.39900589 -92.05589965 165.6623212 -102.64257812 174.32226562 C-103.53847656 175.04671875 -104.434375 175.77117187 -105.35742188 176.51757812 C-107.2759843 178.07818058 -109.18890363 179.64574995 -111.09570312 181.22070312 C-112.55505508 182.42489231 -114.02028345 183.62220809 -115.50195312 184.79882812 C-119.08519695 187.66172912 -121.78268954 190.76672847 -124.64257812 194.32226562 C-126.33007813 196.19726563 -126.33007813 196.19726563 -127.64257812 197.32226562 C-128.30257812 197.32226562 -128.96257812 197.32226562 -129.64257812 197.32226562 C-129.91972656 197.92039062 -130.196875 198.51851562 -130.48242188 199.13476562 C-131.90005023 201.80773492 -133.81799442 203.88028985 -135.80273438 206.14648438 C-144.22416563 216.10558673 -150.90053523 226.72641923 -156.76757812 238.32226562 C-157.09250244 238.96260742 -157.41742676 239.60294922 -157.75219727 240.26269531 C-166.21612136 257.30669392 -172.77175955 276.36463735 -174.64257812 295.32226562 C-174.98412274 297.26203044 -175.33833434 299.19960691 -175.70507812 301.13476562 C-176.5699197 306.15833186 -176.93443231 311.12744736 -177.20117188 316.20898438 C-177.24463745 316.99188843 -177.28810303 317.77479248 -177.33288574 318.5814209 C-177.43874356 320.49489228 -177.54102807 322.40856079 -177.64257812 324.32226562 C-176.82114716 324.3161901 -175.9997162 324.31011457 -175.15339339 324.30385494 C-126.46994874 323.94581456 -77.78664371 323.67128645 -29.10214601 323.50522035 C-23.25673445 323.48520902 -17.41132555 323.46449987 -11.56591797 323.44335938 C-10.40220131 323.43916241 -9.23848466 323.43496544 -8.03950386 323.43064129 C10.80407983 323.36101733 29.64688263 323.23486406 48.49000303 323.08782089 C67.82451476 322.93820137 87.15861751 322.84932673 106.49368441 322.81684971 C118.42524482 322.79489334 130.35459819 322.72555326 142.28547914 322.59560215 C150.46677351 322.5110303 158.64692691 322.48546147 166.82862668 322.50624359 C171.55025025 322.51649542 176.26801868 322.50078575 180.98895645 322.41497803 C208.59865412 321.93751571 208.59865412 321.93751571 214.80794954 325.87700272 C218.42588177 329.50951825 220.2578405 333.47173543 221.69766927 338.33772469 C222.74116905 341.47658009 224.46754069 343.94867786 226.29492188 346.69726562 C227.27486102 348.29663784 228.25478657 349.89601842 229.234375 351.49560547 C230.52448147 353.59399168 231.82386632 355.68651728 233.12304688 357.77929688 C248.55395629 382.71529502 248.55395629 382.71529502 247.35742188 398.32226562 C245.72614208 404.8473848 240.98799471 409.83078011 235.35742188 413.32226562 C226.70716538 417.47161454 217.39417137 416.78283811 208.01757812 416.84960938 C198.18126108 417.0236129 190.18491406 417.81507963 182.79492188 424.70898438 C173.59159382 435.03771939 176.77480906 452.63542432 176.35742188 464.32226562 C67.12742187 464.32226562 -42.10257813 464.32226562 -154.64257812 464.32226562 C-146.58658701 479.28339198 -137.6785582 491.62661102 -126.64257812 504.32226562 C-126.02769531 505.0725 -125.4128125 505.82273437 -124.77929688 506.59570312 C-120.04648827 512.31121901 -114.4914107 516.78517651 -108.64257812 521.32226562 C-107.14597656 522.49015625 -107.14597656 522.49015625 -105.61914062 523.68164062 C-95.33440151 531.72945402 -95.33440151 531.72945402 -83.64257812 537.32226562 C-83.64257812 537.98226562 -83.64257812 538.64226563 -83.64257812 539.32226562 C-82.99160156 539.41121094 -82.340625 539.50015625 -81.66992188 539.59179688 C-78.40778567 540.37891877 -75.61777153 541.57838946 -72.56689453 542.95043945 C-54.57241976 551.02135387 -36.16312439 555.04686453 -16.64257812 557.32226562 C-16.64257812 557.98226562 -16.64257812 558.64226563 -16.64257812 559.32226562 C-14.68591957 559.31673487 -14.68591957 559.31673487 -12.68973255 559.31109238 C18.26562247 559.22448626 49.22094482 559.15851627 80.17639188 559.11800431 C83.98535196 559.1130014 87.79431179 559.10782412 91.60327148 559.10253906 C92.74072838 559.1009652 92.74072838 559.1009652 93.90116421 559.09935954 C106.18422637 559.08194789 118.46721375 559.05040604 130.75023153 559.01365444 C143.35101928 558.97626612 155.95176784 558.95403425 168.55260879 558.94591165 C176.3298585 558.94041947 184.10689686 558.9230647 191.88408152 558.89059976 C197.8447135 558.86698324 203.80523664 558.86444046 209.76591682 558.8698349 C212.21330442 558.86873194 214.66069982 558.86074214 217.10803986 558.84544373 C220.44343303 558.82561191 223.77791378 558.83030229 227.11332703 558.84124756 C228.57393202 558.82377051 228.57393202 558.82377051 230.06404418 558.80594039 C234.31989006 558.84382231 236.72085377 558.94117068 240.4351778 561.16482925 C243.36421492 564.45224281 243.48542508 567.15322729 243.51132202 571.38813782 C243.51992249 572.43536011 243.52852295 573.4825824 243.53738403 574.5615387 C243.54164398 575.71016891 243.54590393 576.85879913 243.55029297 578.04223633 C243.5625592 579.85723129 243.5625592 579.85723129 243.57507324 581.70889282 C243.59993147 585.72194081 243.61659619 589.73495116 243.63085938 593.74804688 C243.63622032 595.13070367 243.64159783 596.51336041 243.64699173 597.89601707 C243.66861427 603.64790729 243.68735065 609.39979473 243.69861412 615.15171528 C243.71485285 623.38946671 243.74803515 631.62674647 243.80501497 639.8643201 C243.84373338 645.65975553 243.86324895 651.4550649 243.86853468 657.25062627 C243.87218533 660.71066231 243.88417474 664.17019489 243.91663742 667.63009071 C243.95234981 671.49157127 243.94834231 675.35246106 243.94091797 679.21411133 C243.9573233 680.35666885 243.97372864 681.49922638 243.9906311 682.67640686 C243.92250401 691.32227885 243.92250401 691.32227885 241.00845337 695.01652527 C237.62419207 697.95999382 235.30991583 698.44653995 230.97867584 698.4564867 C230.07815412 698.46094455 229.1776324 698.46540239 228.24982214 698.46999532 C226.76376211 698.46971878 226.76376211 698.46971878 225.24768066 698.46943665 C224.19583792 698.47311333 223.14399518 698.47679002 222.06027842 698.48057812 C218.51674324 698.49163711 214.97323737 698.49546288 211.4296875 698.49926758 C208.89493211 698.50553156 206.36017765 698.5121783 203.82542419 698.5191803 C196.19424419 698.53844199 188.56306932 698.54902428 180.93187118 698.55790809 C177.32517013 698.56229759 173.71847053 698.56766358 170.11177063 698.57289696 C158.09172623 698.58992937 146.07168273 698.60441016 134.05162811 698.6116457 C130.93041482 698.61355525 127.80920154 698.6154756 124.68798828 698.61743164 C123.52450681 698.61815725 123.52450681 698.61815725 122.33752066 698.61889752 C109.85181418 698.62714726 97.36620511 698.6523883 84.88054091 698.68501232 C72.01508388 698.71834896 59.14967575 698.73611912 46.2841754 698.73928994 C39.08032392 698.74143332 31.87661479 698.74996538 24.67280579 698.77575111 C-11.42095952 698.90013671 -46.92233736 698.82601788 -82.20507812 690.25976562 C-83.6949246 689.91628187 -85.18516428 689.57449947 -86.67578125 689.234375 C-105.61858556 684.86511898 -105.61858556 684.86511898 -111.70507812 681.75976562 C-115.55905529 679.8737768 -119.4464401 679.11486947 -123.64257812 678.32226562 C-123.64257812 677.66226563 -123.64257812 677.00226562 -123.64257812 676.32226562 C-124.22265625 676.20109375 -124.80273438 676.07992187 -125.40039062 675.95507812 C-129.92286255 674.98491088 -134.28008778 673.8882878 -138.64257812 672.32226562 C-138.64257812 671.66226563 -138.64257812 671.00226562 -138.64257812 670.32226562 C-139.79757812 670.15726563 -140.95257813 669.99226562 -142.14257812 669.82226562 C-162.28140367 665.2395917 -183.16807448 650.25809807 -199.64257812 638.32226562 C-200.86226522 637.49106899 -202.08506017 636.66441877 -203.31054688 635.84179688 C-203.91946777 635.4309082 -204.52838867 635.02001953 -205.15576172 634.59667969 C-206.85450278 633.45250728 -208.5551229 632.31112612 -210.25585938 631.16992188 C-211.43728516 630.25533203 -211.43728516 630.25533203 -212.64257812 629.32226562 C-212.64257812 628.66226563 -212.64257812 628.00226562 -212.64257812 627.32226562 C-213.43498901 626.99053345 -213.43498901 626.99053345 -214.2434082 626.65209961 C-217.50887487 624.84208669 -220.2208578 622.4786459 -223.02929688 620.04492188 C-223.64278488 619.51552505 -224.25627289 618.98612823 -224.88835144 618.44068909 C-231.08334863 613.03378023 -236.94894817 607.31966309 -242.73999023 601.4855957 C-244.4650629 599.74971831 -246.20069803 598.02491472 -247.9375 596.30078125 C-254.6261604 589.62060764 -260.82733582 582.78805899 -266.64257812 575.32226562 C-267.13218018 574.7016626 -267.62178223 574.08105957 -268.1262207 573.44165039 C-270.60265734 570.28248686 -273.01880154 567.07659939 -275.44580078 563.87939453 C-276.52634558 562.47349598 -277.63558137 561.08976252 -278.74804688 559.70898438 C-300.98503937 531.54768994 -318.59653541 495.74641913 -328.64257812 461.32226562 C-328.88427734 460.4942041 -329.12597656 459.66614258 -329.375 458.81298828 C-335.3345609 437.98935373 -339.56790299 416.53576693 -342.45507812 395.07226562 C-342.56682373 394.25435547 -342.67856934 393.43644531 -342.79370117 392.59375 C-344.7228562 376.98807132 -344.87992433 361.15192552 -344.89257812 345.44726562 C-344.89358521 344.56406647 -344.89459229 343.68086731 -344.89562988 342.77090454 C-344.87872446 320.63747829 -342.9509517 299.05379419 -338.09375 277.41845703 C-337.43134079 274.340835 -336.93076088 271.23621623 -336.39257812 268.13476562 C-334.14421672 256.92941849 -330.31005179 246.12747498 -326.64257812 235.32226562 C-326.30532715 234.32582031 -325.96807617 233.329375 -325.62060547 232.30273438 C-321.88242807 221.36815378 -317.73609183 210.94154931 -312.36914062 200.70507812 C-310.97042043 197.9645992 -309.81349452 195.33086691 -308.76757812 192.44726562 C-304.18181324 180.40198986 -296.73734627 169.01736388 -289.64257812 158.32226562 C-288.87518319 157.14157999 -288.10828984 155.96056826 -287.34179688 154.77929688 C-281.81383577 146.3135508 -275.93906205 138.23089277 -269.64257812 130.32226562 C-268.55009766 128.9378125 -268.55009766 128.9378125 -267.43554688 127.52539062 C-259.0145994 117.02575882 -249.75472881 107.35527432 -240.26757812 97.82226562 C-239.60169678 97.15171143 -238.93581543 96.48115723 -238.24975586 95.7902832 C-227.74742989 85.32226562 -227.74742989 85.32226562 -224.64257812 85.32226562 C-224.64257812 84.66226563 -224.64257812 84.00226563 -224.64257812 83.32226562 C-221.17279025 80.09584964 -217.36829391 77.24724047 -213.64257812 74.32226562 C-213.11341797 73.90315918 -212.58425781 73.48405273 -212.0390625 73.05224609 C-191.00301913 56.4147649 -191.00301913 56.4147649 -184.64257812 55.32226562 C-184.64257812 54.66226563 -184.64257812 54.00226563 -184.64257812 53.32226562 C-183.20963314 52.48112392 -181.77103407 51.64960875 -180.33007812 50.82226562 C-179.52957031 50.35820312 -178.7290625 49.89414063 -177.90429688 49.41601562 C-175.64257812 48.32226562 -175.64257812 48.32226562 -172.64257812 48.32226562 C-172.64257812 47.66226563 -172.64257812 47.00226563 -172.64257812 46.32226562 C-171.57007813 45.80664062 -170.49757813 45.29101562 -169.39257812 44.75976562 C-165.99504139 43.07566711 -162.8026535 41.19309196 -159.58007812 39.19726562 C-153.48396924 35.59608933 -147.12370417 32.7253244 -140.64257812 29.88476562 C-139.62671631 29.43536621 -138.61085449 28.9859668 -137.56420898 28.52294922 C-136.6000708 28.1073877 -135.63593262 27.69182617 -134.64257812 27.26367188 C-133.77632812 26.88927979 -132.91007813 26.5148877 -132.01757812 26.12915039 C-129.64257812 25.32226562 -129.64257812 25.32226562 -125.64257812 25.32226562 C-125.64257812 24.66226563 -125.64257812 24.00226563 -125.64257812 23.32226562 C-83.81098054 9.13644801 -83.81098054 9.13644801 -62.45507812 4.63476562 C-61.524375 4.43189941 -60.59367187 4.2290332 -59.63476562 4.02001953 C-40.0286851 0.08235537 -19.91451297 0.01696359 0 0 Z " fill="#000000" transform="translate(544.642578125,174.677734375)"/>
<path d="M0 0 C2.39564111 0.72979795 4.79148034 1.45894584 7.1875 2.1875 C9.12555075 2.78989761 11.06325424 3.39341985 13 4 C13 4.66 13 5.32 13 6 C13.60585938 6.08636719 14.21171875 6.17273438 14.8359375 6.26171875 C20.72430055 7.24915194 25.45281085 8.97702359 30.7109375 11.78515625 C33.06111828 13.03243649 35.47236497 14.0279877 37.9296875 15.04296875 C43.08030592 17.423915 48.028021 20.27101905 53 23 C53 23.66 53 24.32 53 25 C53.58249512 25.11537109 54.16499023 25.23074219 54.76513672 25.34960938 C57.16597956 26.04830343 58.7165107 26.97445628 60.7578125 28.40625 C61.46107666 28.89843018 62.16434082 29.39061035 62.88891602 29.89770508 C63.62682373 30.4264624 64.36473145 30.95521973 65.125 31.5 C65.88546631 32.04100342 66.64593262 32.58200684 67.42944336 33.1394043 C73.32741507 37.39224816 78.71971581 42.00224024 84 47 C85.30760108 48.13069035 86.6199709 49.25589396 87.9375 50.375 C99.0060682 60.05999717 108.65616284 70.88797832 117 83 C113.35807761 91.33474776 103.38467228 97.21363833 96 102 C95.34 102 94.68 102 94 102 C92.9140625 100.48828125 92.9140625 100.48828125 91.625 98.3125 C78.63700402 78.07688157 56.30192633 58.70746695 35 48 C33.7681155 47.37131643 32.53635107 46.74239754 31.3046875 46.11328125 C24.79576238 42.72436098 24.79576238 42.72436098 18 40 C18.33773437 40.66644531 18.67546875 41.33289063 19.0234375 42.01953125 C19.46945312 42.94121094 19.91546875 43.86289062 20.375 44.8125 C21.03628906 46.15248047 21.03628906 46.15248047 21.7109375 47.51953125 C28.39913633 65.57766808 26.90663433 87.69079412 19.234375 105.04296875 C15.54826188 113.02522728 11.35718942 120.79204038 5 127 C4.34 127 3.68 127 3 127 C3 127.66 3 128.32 3 129 C-12.29446692 143.10804959 -30.62757134 149.8300864 -51.4296875 149.28515625 C-62.6300093 148.39060101 -72.82232095 145.89860253 -83 141 C-83.68320312 140.67386719 -84.36640625 140.34773437 -85.0703125 140.01171875 C-86.39139664 139.36346584 -87.69857288 138.68686431 -89 138 C-89 137.34 -89 136.68 -89 136 C-90.3303125 135.6596875 -90.3303125 135.6596875 -91.6875 135.3125 C-95.58297392 133.76901033 -97.2171215 132.12225393 -100 129 C-100.53496094 128.42121094 -101.06992187 127.84242188 -101.62109375 127.24609375 C-118.30165785 108.85660771 -124.13250714 89.00766948 -123.20556641 64.49365234 C-122.68274197 58.15145666 -120.871579 52.05756597 -119 46 C-118.34 46 -117.68 46 -117 46 C-116.67 44.35 -116.34 42.7 -116 41 C-132.26365347 45.2285499 -147.34530557 56.38085799 -159.7890625 67.42089844 C-162.41375903 69.74051661 -164.83935173 71.50706706 -168 73 C-168.68486725 74.32407669 -169.34870203 75.65909241 -170 77 C-171.11450102 78.14827378 -172.23500464 79.29139828 -173.38671875 80.40234375 C-180.07452477 87.02537683 -185.81110749 94.15826534 -191 102 C-192.485 101.505 -192.485 101.505 -194 101 C-194 100.34 -194 99.68 -194 99 C-194.67417969 98.78601563 -195.34835937 98.57203125 -196.04296875 98.3515625 C-199.94980508 96.56587509 -202.9915714 94.07004814 -206.3125 91.375 C-206.95767578 90.859375 -207.60285156 90.34375 -208.26757812 89.8125 C-209.8493804 88.54705818 -211.42529063 87.27425738 -213 86 C-206.40694494 68.30762747 -187.32999489 52.34535171 -173 41 C-171.85763737 40.07866477 -170.71572764 39.15676777 -169.57421875 38.234375 C-163.36128808 33.24663733 -157.12588919 28.58412717 -150.3046875 24.4375 C-147.97384662 23.05280363 -147.97384662 23.05280363 -145.9453125 21.3125 C-144 20 -144 20 -140 20 C-140 19.34 -140 18.68 -140 18 C-138.21046815 17.16209211 -136.41830305 16.32980604 -134.625 15.5 C-133.62726563 15.0359375 -132.62953125 14.571875 -131.6015625 14.09375 C-129 13 -129 13 -127 13 C-127 12.34 -127 11.68 -127 11 C-108.14932 4.35545932 -108.14932 4.35545932 -98.8125 1.1875 C-97.70519531 0.80980469 -96.59789062 0.43210937 -95.45703125 0.04296875 C-65.82468608 -8.89695911 -29.54496156 -9.63620285 0 0 Z " fill="#020202" transform="translate(629,335)"/>
<path d="M0 0 C78.21 0 156.42 0 237 0 C236.34 1.32 235.68 2.64 235 4 C234.34 4 233.68 4 233 4 C232.34 5.32 231.68 6.64 231 8 C230.34 8 229.68 8 229 8 C228.73517822 8.60142822 228.47035645 9.20285645 228.19750977 9.82250977 C226.95009206 12.09075004 225.84302565 13.23217441 223.83984375 14.83984375 C223.2159375 15.34290039 222.59203125 15.84595703 221.94921875 16.36425781 C221.28535156 16.88342773 220.62148438 17.40259766 219.9375 17.9375 C218.91269531 18.74525879 218.91269531 18.74525879 217.8671875 19.56933594 C213.11590535 23.25901757 208.38430715 26.3165589 203 29 C201.89398437 29.62390625 200.78796875 30.2478125 199.6484375 30.890625 C191.05067369 35.73523459 182.48964484 39.20740697 173 42 C171.32808995 42.51030186 169.65621701 43.0207253 167.984375 43.53125 C162.68330518 45.12674605 157.35458682 46.59544907 152 48 C151.3184082 48.18369141 150.63681641 48.36738281 149.93457031 48.55664062 C111.11498571 58.59653319 67.02583298 47.51070935 33.15625 27.8125 C24.73958103 22.70303302 17.36070826 16.50572612 10 10 C9.16855469 9.29101562 8.33710938 8.58203125 7.48046875 7.8515625 C4.50729035 5.31230743 2.18455889 3.27683834 0 0 Z " fill="#010101" transform="translate(462,670)"/>
<path d="M0 0 C3.39541124 2.29526634 6.54203436 4.56608547 8.25 8.375 C9.08176587 13.68662769 9.41859588 19.27908395 6.5 24 C4.45069294 26.16315745 3.03292412 27.38109853 0.25 28.375 C0.25 29.035 0.25 29.695 0.25 30.375 C-3.98744872 32.49372436 -8.08749941 33.21648261 -12.75 32.375 C-18.52515758 29.83854241 -22.90107917 26.07284167 -25.75 20.375 C-26.51457906 14.62613975 -26.59306022 9.74784946 -23.1875 4.875 C-17.31539191 -1.82030081 -8.06744592 -4.19156429 0 0 Z " fill="#FAFAFA" transform="translate(554.75,379.625)"/>
<path d="M0 0 C-1.02351522 2.20449433 -2.0309963 4.03843541 -3.5625 5.9375 C-6.70945875 10.45270169 -6.08958953 15.7142177 -6 21 C-8.52692114 18.47307886 -8.38257153 17.38806853 -8.5 13.875 C-8.42819066 8.42467106 -6.94009439 5.5002587 -3.5078125 1.36328125 C-2 0 -2 0 0 0 Z " fill="#D5D5D5" transform="translate(537,381)"/>
<path d="M0 0 C0 0.33 0 0.66 0 1 C2.97 1.33 5.94 1.66 9 2 C9 2.33 9 2.66 9 3 C3.06 3 -2.88 3 -9 3 C-9.33 2.34 -9.66 1.68 -10 1 C-6.78548731 -0.60725635 -3.56387464 -0.05748185 0 0 Z " fill="#FCFBFC" transform="translate(580,484)"/>
<path d="M0 0 C0.33 0.99 0.66 1.98 1 3 C-2.5087188 6.09592835 -5.49197399 7.74194623 -10 9 C-7.12505529 5.01930733 -4.17882671 2.56428003 0 0 Z " fill="#D4DADA" transform="translate(481,392)"/>
<path d="M0 0 C0.93423645 3.01031744 1.04449911 3.86650268 0 7 C-2.5625 8.1875 -2.5625 8.1875 -5 9 C-3.7508258 5.54074837 -2.32472205 2.85306797 0 0 Z " fill="#C5C5C9" transform="translate(402,388)"/>
<path d="M0 0 C1 2 1 2 0.1875 5.0625 C-1 8 -1 8 -3 9 C-3.33 9.99 -3.66 10.98 -4 12 C-4.66 11.67 -5.32 11.34 -6 11 C-5.18993474 9.35296694 -4.3768779 7.70740494 -3.5625 6.0625 C-3.11003906 5.14597656 -2.65757812 4.22945313 -2.19140625 3.28515625 C-1 1 -1 1 0 0 Z " fill="#C3C5C6" transform="translate(396,397)"/>
<path d="M0 0 C3.79588866 0.54226981 5.47211993 2.20127563 8 5 C5.69 4.67 3.38 4.34 1 4 C0.67 2.68 0.34 1.36 0 0 Z " fill="#E4E4E4" transform="translate(416,422)"/>
<path d="M0 0 C-3.68734758 2.45823172 -6.69699971 3.01242616 -11 4 C-10.67 3.01 -10.34 2.02 -10 1 C-6.52674819 -0.1577506 -3.63932552 -0.06866652 0 0 Z " fill="#D2D2D2" transform="translate(531,336)"/>
<path d="M0 0 C0.33 0.99 0.66 1.98 1 3 C-1.3125 5.5 -1.3125 5.5 -4 8 C-4.99 8 -5.98 8 -7 8 C-4.69 5.36 -2.38 2.72 0 0 Z " fill="#C7CED1" transform="translate(453,417)"/>
<path d="M0 0 C0.66 0.33 1.32 0.66 2 1 C0.71937515 2.7074998 -0.61767557 4.37373596 -2 6 C-2.66 6 -3.32 6 -4 6 C-4.33 5.01 -4.66 4.02 -5 3 C-2.625 1.4375 -2.625 1.4375 0 0 Z " fill="#D6D6D6" transform="translate(458,337)"/>
</svg>
